<svg width="13" height="13" viewBox="0 0 13 13" fill="none" xmlns="http://www.w3.org/2000/svg">
<path d="M6.00357 3.04959e-05C2.69293 3.05078e-05 -0.00012208 2.91599 -0.000122092 6.50003C-0.000122104 10.0841 2.69293 13 6.00357 13C9.31421 13 12.0073 10.0841 12.0073 6.50003C12.0073 2.91599 9.31421 3.04839e-05 6.00357 3.04959e-05ZM8.3903 6.72776L4.88815 9.16526C4.84711 9.19408 4.79971 9.20837 4.75281 9.20837C4.71177 9.20837 4.67023 9.19725 4.63311 9.17531C4.55248 9.12771 4.50265 9.03671 4.50265 8.93753L4.50265 4.06253C4.50265 3.96335 4.55248 3.87235 4.63311 3.82475C4.71226 3.77767 4.81144 3.78057 4.88815 3.8348L8.3903 6.2723C8.46164 6.32202 8.50512 6.40799 8.50512 6.50003C8.50512 6.59207 8.46164 6.67802 8.3903 6.72776Z" fill="black"/>
</svg>
